<svg xmlns="http://www.w3.org/2000/svg" width="24" height="24" fill="none"><path fill="url(#a)" d="M23.67 13.94c-.29-.506-.582-1.012-.872-1.521a.845.845 0 0 1 0-.826l.111-.196c.181-.318.365-.633.546-.95.124-.216.25-.432.374-.65a1.336 1.336 0 0 0-.206-1.586c-.19-.19-.456-.315-.687-.449l-.996-.573c-.221-.126-.499-.246-.65-.456-.181-.253-.159-.541-.159-.832V4.763c0-.26.02-.531-.017-.79-.087-.592-.593-1.031-1.178-1.093-.24-.025-.494-.005-.737-.005h-1.13c-.296 0-.583.017-.831-.184-.198-.161-.318-.44-.444-.657l-.573-.995c-.139-.241-.265-.511-.476-.697a1.333 1.333 0 0 0-1.54-.162c-.543.305-1.081.623-1.62.933-.069.04-.136.082-.205.117a.836.836 0 0 1-.791-.02c-.219-.122-.432-.248-.65-.375-.317-.18-.632-.364-.95-.548-.315-.181-.63-.325-1.007-.278-.458.057-.8.332-1.029.725l-.49.85c-.157.273-.316.546-.472.82-.168.294-.436.466-.781.466-.635.002-1.27 0-1.907 0-.412 0-.806.111-1.091.429a1.35 1.35 0 0 0-.34.799c-.007.082-.002.166-.002.248 0 .628.007 1.255 0 1.883-.003.357-.204.608-.501.779l-.856.494-.81.469c-.415.238-.69.65-.703 1.136-.01.352.15.638.318.93.188.325.374.653.563.98.121.211.265.422.367.643a.84.84 0 0 1-.04.757c-.04.072-.082.143-.124.213-.302.526-.612 1.05-.91 1.578-.293.523-.208 1.208.243 1.617.198.182.459.303.69.437l.994.573c.228.132.498.248.642.482.159.253.13.54.13.826v1.143c0 .261-.023.536.024.794.109.59.645 1.023 1.235 1.05.238.01.476 0 .714 0h1.111c.312 0 .61-.005.856.23.178.172.29.437.411.648.189.328.377.658.568.985.146.253.278.526.51.712a1.33 1.33 0 0 0 1.499.114c.238-.134.473-.273.709-.41l.93-.535c.074-.042.146-.092.226-.127a.844.844 0 0 1 .751.045c.543.305 1.081.623 1.62.935.061.035.12.072.183.107.275.151.583.199.89.144.424-.074.732-.365.94-.724.32-.556.64-1.114.962-1.67a.868.868 0 0 1 .784-.454h1.919c.42 0 .823-.13 1.099-.464.193-.236.305-.524.31-.831.002-.07 0-.142 0-.211V18.54c0-.258-.003-.516 0-.774a.833.833 0 0 1 .255-.603c.077-.075.169-.127.26-.179.556-.32 1.112-.638 1.665-.96.421-.243.701-.682.692-1.176.002-.342-.16-.618-.325-.908ZM6.898 8.519c.106-.424.357-.846.694-1.126a2.405 2.405 0 0 1 1.332-.559c.883-.089 1.81.444 2.184 1.248.219.464.273.938.191 1.442-.066.424-.297.823-.59 1.134l-.025.024-.032.033c-.741.697-1.93.85-2.79.268a2.3 2.3 0 0 1-.964-2.464Zm4.372 5.247-2.604 2.605c-.285.286-.734.266-1.022 0-.287-.265-.268-.754 0-1.022l.013-.012c.305-.318.624-.626.937-.938l6.752-6.756c.286-.285.734-.265 1.022 0 .288.266.268.754 0 1.022l-.012.013c-.305.317-.625.625-.938.938l-4.149 4.15Zm5.874 1.598c-.067.424-.297.826-.59 1.134l-.057.057c-.741.697-1.93.85-2.79.27a2.299 2.299 0 0 1-.962-2.466 2.2 2.2 0 0 1 .694-1.126 2.37 2.37 0 0 1 1.332-.559c.883-.089 1.81.447 2.185 1.248.213.464.268.936.188 1.442Z"/><defs><linearGradient id="a" x1="20.823" x2="0" y1="20.823" y2="1.412" gradientUnits="userSpaceOnUse"><stop stop-color="#C67020"/><stop offset="1" stop-color="#F5B880"/></linearGradient></defs></svg>