<svg xmlns="http://www.w3.org/2000/svg" width="48" height="48" fill="none"><rect width="48" height="48" fill="#fff" rx="8"/><path stroke="#22548A" stroke-linecap="round" stroke-linejoin="round" stroke-width="1.2" d="m21 23.5 2 2 4.5-4.5m4.5 3c0 4.908-5.354 8.478-7.302 9.615-.221.129-.332.194-.488.227a1.137 1.137 0 0 1-.42 0c-.156-.033-.267-.098-.488-.227C21.354 32.478 16 28.908 16 24v-4.782c0-.8 0-1.2.13-1.543a2 2 0 0 1 .548-.79c.275-.243.65-.383 1.398-.664l5.362-2.01c.208-.078.312-.117.419-.133a.993.993 0 0 1 .286 0c.107.016.21.055.419.133l5.362 2.01c.748.28 1.123.421 1.398.664a2 2 0 0 1 .547.79c.131.343.131.743.131 1.543V24Z"/></svg>