<svg xmlns="http://www.w3.org/2000/svg" width="48" height="48" fill="none"><rect width="48" height="48" fill="#F5F5F5" rx="8"/><path stroke="#000" stroke-linecap="round" stroke-linejoin="round" stroke-width="1.2" d="M17 21v8m4.5-8v8m5-8v8m4.5-8v8m-16 1.6v.8c0 .56 0 .84.109 1.054a1 1 0 0 0 .437.437C15.76 33 16.04 33 16.6 33h14.8c.56 0 .84 0 1.054-.109a1 1 0 0 0 .437-.437C33 32.24 33 31.96 33 31.4v-.8c0-.56 0-.84-.109-1.054a1 1 0 0 0-.437-.437C32.24 29 31.96 29 31.4 29H16.6c-.56 0-.84 0-1.054.109a1 1 0 0 0-.437.437C15 29.76 15 30.04 15 30.6Zm8.653-15.523-7.4 1.645c-.447.099-.67.149-.838.269a1 1 0 0 0-.334.417c-.081.188-.081.418-.081.875V19.4c0 .56 0 .84.109 1.054a1 1 0 0 0 .437.437C15.76 21 16.04 21 16.6 21h14.8c.56 0 .84 0 1.054-.109a1 1 0 0 0 .437-.437C33 20.24 33 19.96 33 19.4v-1.116c0-.458 0-.688-.081-.876a1 1 0 0 0-.334-.417c-.167-.12-.39-.17-.838-.27l-7.4-1.644a2.096 2.096 0 0 0-.26-.049 1 1 0 0 0-.174 0c-.066.006-.13.02-.26.05Z"/></svg>